# xmcd
#
# Track frame offsets: 
#        150
#        6198
#        12101
#        16107
#        19920
#        26427
#        34514
#        45315
#        52556
#        60849
#        67185
#        73419
#        88790
#        94920
#        109632
#        122042
#        152629
#        168540
#        190223
#
# Disc length: 4440 seconds
#
# Revision: 0
# Processed by: cddbd v1.5.1PL2 Copyright (c) Steve Scherf et al.
# Submitted via: ExactAudioCopy v0.95b4
#
DISCID=e5115613
DTITLE=Rodney Carrington - Greatest Hits
DYEAR=2004
DGENRE=Country
TTITLE0=Country Bar - Mechanical Sheep
TTITLE1=Going To Heaven Drunk
TTITLE2=Good Woman - "Lucky"
TTITLE3=Wife At Garage Sales
TTITLE4=Growing Up Poor - Toughskin Jeans
TTITLE5=Deer Hunting - Snake Hunting
TTITLE6=Walmart
TTITLE7=Booby Trap
TTITLE8=Baptist Revival
TTITLE9=People Piss Ya Off
TTITLE10=Rodney Scared
TTITLE11=The Weenie Story
TTITLE12=Chucky Cheese
TTITLE13=Japanese Restaurants
TTITLE14=Vacation
TTITLE15=Hypochondriac
TTITLE16=Tips On Marriage
TTITLE17=Helicopter
TTITLE18=Copy Protection Data
EXTD=
EXTT0=
EXTT1=
EXTT2=
EXTT3=
EXTT4=
EXTT5=
EXTT6=
EXTT7=
EXTT8=
EXTT9=
EXTT10=
EXTT11=
EXTT12=
EXTT13=
EXTT14=
EXTT15=
EXTT16=
EXTT17=
EXTT18=
PLAYORDER=
